# xmcd CD database file
#
# Track frame offsets:
#	150
#	22545
#	44639
#	68113
#	84292
#	112515
#	129351
#	155160
#	176045
#	195166
#	220590
#	245098
#	266018
#	291836
#	308548
#
# Disc length: 4520 seconds
#
# Revision: 3
# Processed by: cddbd v1.5.2PL0 Copyright (c) Steve Scherf et al.
# Submitted via: CDex 1.70beta2
#
DISCID=c011a60f
DTITLE=Best Jazz Piano Standards 100 Disc.6 - モダン・ジャズ・スタンダーズ
DYEAR=2006
DGENRE=Jazz
TTITLE0=ダット・デア - ベニー・グリーン
TTITLE1=チャイルド・イズ・ボーン - 松永貴志
TTITLE2=ジャンゴ - レス・マッキャン 
TTITLE3=ウィスパー・ノット - レイ・ブライアント 
TTITLE4=ビリーズ・バウンス - クレア・フィッシャー
TTITLE5=ラッシュ・ライフ - ミシェル・ペトルチアーニ 
TTITLE6=バグス・グルーヴ - ホレス・パーラン
TTITLE7=ディア・オールド・ストックホルム - ユタ・ヒップ 
TTITLE8=チュニジアの夜 - バド・パウエル
TTITLE9=ナウ・ザ・タイム - ザ・スリー・サウンズ
TTITLE10=ゴールデン・ストライカー - デューク・ピアソン
TTITLE11=ムーヴ - ラルフ・ピーターソン feat. ジェリ・アレン 
TTITLE12=ナルディス - ジャッキー・テラソン
TTITLE13=ナイーマ - マッコイ・タイナー 
TTITLE14=ソー・ホワット - ロン・カーター feat. ケニー・バロン .
EXTD=YEAR: 2006
EXTT0=
EXTT1=
EXTT2=
EXTT3=
EXTT4=
EXTT5=
EXTT6=
EXTT7=
EXTT8=
EXTT9=
EXTT10=
EXTT11=
EXTT12=
EXTT13=
EXTT14=
PLAYORDER=
